<?xml version="1.0" standalone="no"?>
<!DOCTYPE svg PUBLIC "-//W3C//DTD SVG 20010904//EN"
 "http://www.w3.org/TR/2001/REC-SVG-20010904/DTD/svg10.dtd">
<svg version="1.0" xmlns="http://www.w3.org/2000/svg"
 width="420.000000pt" height="420.000000pt" viewBox="0 0 420.000000 420.000000"
 preserveAspectRatio="xMidYMid meet">
<metadata>
Created by potrace 1.12, written by Peter Selinger 2001-2015
</metadata>
<g transform="translate(0.000000,420.000000) scale(0.100000,-0.100000)"
fill="#000000" stroke="none">
<path d="M1980 3074 c-212 -36 -329 -90 -360 -164 -7 -17 -18 -30 -24 -30 -23
0 -55 -45 -64 -90 -11 -48 -18 -125 -27 -285 -7 -122 -13 -155 -29 -155 -6 0
-21 -7 -33 -15 l-21 -15 23 -67 c13 -38 34 -76 47 -86 18 -15 26 -40 40 -120
10 -56 15 -110 12 -119 -3 -9 2 -27 10 -40 17 -27 52 -269 62 -423 7 -126 -7
-294 -38 -435 -25 -120 -81 -286 -108 -322 -11 -15 -20 -29 -20 -32 0 -9 74
-26 114 -26 36 0 38 -1 32 -26 -23 -92 -37 -237 -32 -324 7 -100 37 -285 49
-296 15 -16 14 5 -5 101 -30 143 -29 354 0 491 34 159 70 271 117 372 46 97
122 218 157 249 21 18 21 18 14 -2 -34 -93 -90 -313 -94 -370 -4 -70 12 -150
42 -203 9 -17 10 -40 5 -80 -11 -77 -29 -422 -24 -447 2 -11 4 -41 4 -67 1
-29 6 -48 12 -48 8 0 10 21 5 74 -7 73 8 397 22 477 l7 43 18 -27 c44 -67 44
-195 2 -387 -13 -58 -26 -122 -29 -143 l-7 -37 541 0 c297 0 540 2 540 4 0 3
-4 16 -10 30 -9 25 -8 26 33 26 23 0 51 7 61 15 11 8 30 15 42 15 28 0 67 59
63 97 -2 19 21 75 68 168 172 340 172 465 3 635 -38 37 -114 101 -169 141
l-100 72 -20 88 c-55 240 -63 312 -66 589 -2 264 -13 382 -51 550 -46 207
-126 372 -229 476 -80 81 -148 117 -270 146 -78 17 -265 31 -315 22z m325 -45
c241 -54 401 -269 474 -634 34 -170 43 -271 46 -535 2 -204 7 -277 23 -365 49
-266 129 -568 177 -667 l23 -48 -40 -21 c-46 -23 -124 -49 -150 -49 -10 0 -30
18 -44 40 -19 28 -30 38 -37 31 -7 -7 -7 -18 0 -35 11 -23 10 -24 -44 -35 -31
-6 -82 -11 -114 -11 -56 0 -59 2 -75 32 -24 46 -71 185 -99 293 -43 166 -59
305 -58 495 0 155 5 199 38 385 43 248 45 351 6 421 -23 42 -331 344 -350 344
-25 0 -3 -26 134 -156 79 -76 143 -139 141 -141 -4 -4 -100 30 -158 56 -69 31
-189 101 -216 125 -32 29 -88 131 -103 189 -13 47 -25 59 -35 33 -6 -14 40
-139 60 -166 34 -45 -152 113 -202 172 -90 105 -84 142 33 201 85 42 155 59
280 66 121 6 197 1 290 -20z m-673 -200 c18 -30 17 -30 -16 -79 -40 -58 -63
-123 -76 -212 -7 -50 -8 -37 -4 66 5 142 17 212 41 238 23 25 35 22 55 -13z
m286 -261 l81 -55 -41 -19 c-56 -26 -64 -49 -14 -41 35 6 36 5 36 -28 0 -26
-5 -35 -21 -40 -14 -5 -25 -2 -30 6 -4 8 -15 23 -23 34 l-15 20 0 -20 c0 -11
6 -29 14 -39 14 -18 11 -20 -38 -38 -72 -26 -94 -31 -112 -24 -14 5 -14 8 1
31 9 14 13 29 9 33 -4 4 -14 -3 -22 -16 -15 -21 -17 -22 -34 -6 -11 10 -19 30
-19 46 0 17 -4 27 -10 23 -5 -3 -10 -15 -10 -26 0 -15 -7 -19 -35 -19 -28 0
-35 4 -35 20 0 11 -4 20 -10 20 -5 0 -10 -13 -10 -29 0 -27 -15 -49 -26 -38
-2 2 -2 30 2 61 7 55 7 56 38 56 17 0 60 -14 96 -30 71 -31 98 -29 57 6 -26
23 -103 44 -159 44 l-30 0 7 46 c11 73 32 136 65 187 l30 48 89 -79 c49 -43
125 -103 169 -134z m321 -183 c16 -8 58 -22 95 -31 56 -14 69 -22 82 -46 8
-16 14 -41 12 -55 -5 -45 -27 -49 -117 -23 -45 13 -84 27 -87 32 -3 4 1 21 9
37 15 30 15 30 -24 45 -35 14 -38 18 -29 36 13 24 22 25 59 5z m-550 -66 c17
-6 31 -15 31 -19 0 -21 -41 -100 -52 -101 -7 0 -20 -2 -30 -4 -25 -5 -77 32
-84 60 -3 14 -3 36 0 50 6 22 11 25 55 25 26 0 62 -5 80 -11z m464 -11 c14
-51 -44 -119 -101 -120 -58 -1 -71 3 -101 31 -25 23 -31 37 -31 70 l0 41 114
0 c108 0 114 -1 119 -22z m-318 -58 c10 -23 36 -56 57 -75 36 -33 42 -35 109
-35 92 0 143 16 178 55 l27 31 95 -27 94 -27 24 22 24 21 -7 -64 c-3 -35 -6
-75 -6 -88 0 -21 -3 -23 -22 -17 -21 6 -22 6 -6 -18 16 -24 15 -34 -8 -164
-31 -174 -41 -389 -25 -545 l12 -114 -41 -36 c-31 -27 -48 -35 -67 -31 -25 5
-25 3 -19 -32 6 -32 4 -36 -13 -36 -22 0 -35 -30 -26 -60 8 -24 -2 -26 -27 -4
-13 13 -21 14 -31 5 -22 -18 -44 13 -26 35 11 14 10 19 -11 38 -15 13 -24 29
-22 42 2 18 -3 23 -32 28 -27 5 -41 17 -65 55 -36 55 -39 81 -12 105 17 15 17
21 5 79 -16 78 -48 177 -77 242 l-23 49 33 29 c18 16 33 34 33 41 0 7 16 18
36 25 50 18 114 78 114 106 0 27 -24 55 -46 55 -8 0 -41 -11 -74 -25 l-59 -25
-51 27 c-50 26 -51 26 -87 9 -31 -15 -42 -15 -84 -5 -45 12 -51 11 -79 -9 -35
-26 -43 -27 -60 -7 -10 12 -6 22 23 54 19 21 38 47 41 57 5 16 16 19 67 19 37
0 64 5 66 11 3 8 -12 10 -45 6 -49 -4 -92 9 -92 29 0 6 25 39 55 72 31 34 60
79 67 100 9 31 16 37 38 37 22 0 30 -8 45 -40z m-143 -409 c46 -5 52 -9 59
-33 5 -21 4 -28 -7 -28 -21 0 -28 -47 -11 -74 16 -23 54 -36 109 -36 26 0 32
-6 59 -65 48 -107 95 -286 71 -271 -17 11 -190 -200 -231 -280 -11 -23 -26
-48 -33 -55 -13 -13 -76 -198 -98 -286 -10 -38 -14 -43 -39 -43 -16 0 -42 3
-59 6 l-30 6 23 47 c54 109 102 297 126 491 15 120 6 332 -21 504 -11 71 -20
130 -20 133 0 2 11 1 25 -3 14 -3 48 -9 77 -13z m308 -666 c15 -24 20 -44 16
-60 -5 -18 -1 -27 13 -34 10 -6 21 -24 24 -41 6 -26 10 -30 29 -25 34 8 56
-30 33 -55 -16 -18 -15 -22 15 -74 17 -31 35 -56 39 -56 4 0 24 20 45 45 37
45 37 47 21 71 -13 20 -14 28 -4 40 6 8 17 14 24 14 14 0 25 22 25 51 0 12 7
19 20 19 15 0 20 7 20 28 0 19 10 35 36 56 20 16 35 25 33 20 -2 -5 -31 -63
-65 -129 -33 -66 -74 -157 -90 -202 -16 -46 -32 -83 -36 -83 -38 0 -148 164
-191 285 -23 67 -43 165 -33 165 2 0 14 -16 26 -35z m1060 -88 c127 -100 183
-162 221 -242 38 -78 37 -132 -1 -246 -23 -68 -148 -339 -165 -357 -1 -2 -20
8 -40 23 -21 14 -41 25 -46 25 -4 0 -19 4 -33 10 l-26 9 19 48 c31 81 64 269
58 335 -4 49 -2 60 13 68 16 9 16 12 -5 57 -39 81 -121 353 -106 353 4 0 54
-37 111 -83z m-30 -423 c0 -114 -65 -354 -96 -354 -7 0 -17 -7 -22 -16 -14
-25 -29 -14 -59 46 -27 52 -30 55 -63 52 -33 -2 -37 1 -69 54 l-34 57 13 71
c20 117 17 112 68 124 29 6 51 7 57 1 15 -15 66 -9 130 14 40 15 62 19 67 12
4 -5 8 -33 8 -61z m-162 -394 c18 -11 46 -20 63 -20 36 0 64 -13 102 -48 34
-33 34 -52 -2 -91 -23 -25 -37 -31 -69 -31 -41 0 -41 0 -57 55 -17 61 -26 67
-107 79 -34 5 -48 12 -48 23 0 23 68 10 149 -28 63 -29 88 -31 60 -5 -17 17
-141 66 -166 66 -15 0 -16 2 -3 10 22 15 41 12 78 -10z"/>
<path d="M2170 2808 c0 -7 24 -26 52 -43 71 -41 239 -211 298 -301 53 -81 85
-158 102 -241 14 -67 33 -71 25 -5 -18 155 -127 326 -307 484 -57 50 -152 118
-165 118 -3 0 -5 -6 -5 -12z"/>
</g>
</svg>
