<?xml version="1.0" encoding="utf-8"?>
<!-- Generator: Adobe Illustrator 16.0.0, SVG Export Plug-In . SVG Version: 6.00 Build 0)  -->
<!DOCTYPE svg PUBLIC "-//W3C//DTD SVG 1.1//EN" "http://www.w3.org/Graphics/SVG/1.1/DTD/svg11.dtd">
<svg version="1.1" id="Layer_1" xmlns="http://www.w3.org/2000/svg" xmlns:xlink="http://www.w3.org/1999/xlink" x="0px" y="0px"
	 width="120px" height="120px" viewBox="0 0 120 120" enable-background="new 0 0 120 120" xml:space="preserve">
<circle fill="#ffe24f" cx="60.595" cy="59.043" r="10.504"/>
<g>
	<line fill="#ffe24f" x1="16.25" y1="105" x2="101.627" y2="18.125"/>
	<line fill="none" stroke="#ffe24f" stroke-miterlimit="10" x1="16.25" y1="105" x2="101.627" y2="18.125"/>
	<line fill="none" stroke="#ffe24f" stroke-width="4" stroke-miterlimit="10" x1="16.25" y1="105" x2="101.627" y2="18.125"/>
	<line fill="none" stroke="#ffe24f" stroke-width="4" stroke-miterlimit="10" x1="16.25" y1="105" x2="101.627" y2="18.125"/>
</g>
<g>
	<line fill="#ffe24f" x1="8.333" y1="81.491" x2="112" y2="34.5"/>
	<line fill="none" stroke="#ffe24f" stroke-miterlimit="10" x1="8.333" y1="81.491" x2="112" y2="34.5"/>
	<line fill="none" stroke="#ffe24f" stroke-width="4" stroke-miterlimit="10" x1="8.333" y1="81.491" x2="112" y2="34.5"/>
	<line fill="none" stroke="#ffe24f" stroke-width="4" stroke-miterlimit="10" x1="8.333" y1="81.491" x2="112" y2="34.5"/>
</g>
<g>
	<line fill="#ffe24f" x1="6" y1="59.514" x2="112" y2="59.043"/>
	<line fill="none" stroke="#ffe24f" stroke-miterlimit="10" x1="6" y1="59.514" x2="112" y2="59.043"/>
	<line fill="none" stroke="#ffe24f" stroke-width="4" stroke-miterlimit="10" x1="6" y1="59.514" x2="112" y2="59.043"/>
	<line fill="none" stroke="#ffe24f" stroke-width="4" stroke-miterlimit="10" x1="6" y1="59.514" x2="112" y2="59.043"/>
</g>
<g>
	<line fill="#ffe24f" x1="6" y1="36.874" x2="112" y2="79.815"/>
	<line fill="none" stroke="#ffe24f" stroke-miterlimit="10" x1="6" y1="36.874" x2="112" y2="79.815"/>
	<line fill="none" stroke="#ffe24f" stroke-width="4" stroke-miterlimit="10" x1="6" y1="36.874" x2="112" y2="79.815"/>
	<line fill="none" stroke="#ffe24f" stroke-width="4" stroke-miterlimit="10" x1="6" y1="36.874" x2="112" y2="79.815"/>
</g>
<g>
	<line fill="#ffe24f" x1="16.25" y1="14.25" x2="104.635" y2="102.635"/>
	<line fill="none" stroke="#ffe24f" stroke-miterlimit="10" x1="16.25" y1="14.25" x2="104.635" y2="102.635"/>
	<line fill="none" stroke="#ffe24f" stroke-width="4" stroke-miterlimit="10" x1="16.25" y1="14.25" x2="104.635" y2="102.635"/>
	<line fill="none" stroke="#ffe24f" stroke-width="4" stroke-miterlimit="10" x1="16.25" y1="14.25" x2="104.635" y2="102.635"/>
</g>
<g>
	<line fill="#ffe24f" x1="41.086" y1="107" x2="84.184" y2="7.862"/>
	<line fill="none" stroke="#ffe24f" stroke-miterlimit="10" x1="41.086" y1="107" x2="84.184" y2="7.862"/>
	<line fill="none" stroke="#ffe24f" stroke-width="4" stroke-miterlimit="10" x1="41.086" y1="107" x2="84.184" y2="7.862"/>
	<line fill="none" stroke="#ffe24f" stroke-width="4" stroke-miterlimit="10" x1="41.086" y1="107" x2="84.184" y2="7.862"/>
</g>
<g>
	<line fill="#ffe24f" x1="60.92" y1="114.5" x2="62" y2="4"/>
	<line fill="none" stroke="#ffe24f" stroke-miterlimit="10" x1="60.92" y1="114.5" x2="62" y2="4"/>
	<line fill="none" stroke="#ffe24f" stroke-width="4" stroke-miterlimit="10" x1="60.92" y1="114.5" x2="62" y2="4"/>
	<line fill="none" stroke="#ffe24f" stroke-width="4" stroke-miterlimit="10" x1="60.92" y1="114.5" x2="62" y2="4"/>
</g>
<g>
	<line fill="#ffe24f" x1="82.469" y1="107" x2="39.372" y2="7.862"/>
	<line fill="none" stroke="#ffe24f" stroke-miterlimit="10" x1="82.469" y1="107" x2="39.372" y2="7.862"/>
	<line fill="none" stroke="#ffe24f" stroke-width="4" stroke-miterlimit="10" x1="82.469" y1="107" x2="39.372" y2="7.862"/>
	<line fill="none" stroke="#ffe24f" stroke-width="4" stroke-miterlimit="10" x1="82.469" y1="107" x2="39.372" y2="7.862"/>
</g>
</svg>
