<?xml version="1.0" encoding="utf-8"?>
<!-- Generator: Adobe Illustrator 16.0.0, SVG Export Plug-In . SVG Version: 6.00 Build 0)  -->
<!DOCTYPE svg PUBLIC "-//W3C//DTD SVG 1.1//EN" "http://www.w3.org/Graphics/SVG/1.1/DTD/svg11.dtd">
<svg version="1.1" id="Layer_1" xmlns="http://www.w3.org/2000/svg" xmlns:xlink="http://www.w3.org/1999/xlink" x="0px" y="0px"
	 width="42.5px" height="42.75px" viewBox="0 0 42.5 42.75" enable-background="new 0 0 42.5 42.75" xml:space="preserve">
<title>HTML5 Performance and Integration Logo</title>
<path fill="#001F60" d="M42.205,17.979L35.989,15.4l2.56-6.182c-0.653-0.914-1.36-1.777-2.138-2.564
	c-0.047-0.051-0.094-0.102-0.143-0.15c-0.08-0.08-0.166-0.154-0.252-0.234c-0.762-0.746-1.599-1.424-2.479-2.061l-6.181,2.559
	L24.78,0.553c-2.238-0.379-4.498-0.389-6.684-0.055c-0.041,0.004-0.074,0.006-0.107,0.01c-0.094,0.014-0.186,0.035-0.271,0.055
	l-2.575,6.201L8.928,4.191C7.071,5.516,5.459,7.109,4.142,8.908C4.13,8.928,4.114,8.945,4.101,8.965
	c-0.055,0.074-0.107,0.152-0.158,0.23l2.566,6.197l-6.214,2.58c-0.372,2.238-0.384,4.49-0.054,6.676
	c0.004,0.039,0.008,0.08,0.015,0.117c0.011,0.092,0.029,0.18,0.047,0.271l6.206,2.566l-2.566,6.195
	c0.59,0.826,1.227,1.621,1.918,2.35c0.123,0.127,0.238,0.262,0.367,0.389c0.088,0.092,0.189,0.176,0.284,0.264
	c0.747,0.727,1.569,1.387,2.433,2.006l6.191-2.566l2.569,6.205c0.092,0.018,0.188,0.035,0.282,0.057
	c0.021-0.004,0.05,0.002,0.072,0.004c2.195,0.34,4.459,0.326,6.713-0.047l2.574-6.217l6.201,2.57c0.08-0.049,0.159-0.104,0.234-0.16
	c0.023-0.014,0.048-0.035,0.074-0.055c1.783-1.313,3.375-2.916,4.696-4.768l-2.575-6.219l6.207-2.568
	c0.016-0.09,0.035-0.184,0.053-0.279c0.004-0.027,0.004-0.059,0.008-0.084C42.59,22.484,42.58,20.227,42.205,17.979z M37.183,22.664
	l-6.541,2.709l0.008,0.027l-0.021,0.006l2.711,6.537c-0.505,0.59-1.055,1.135-1.647,1.646l-6.541-2.705l-0.006,0.021l-0.022-0.012
	l-2.708,6.537c-0.773,0.059-1.545,0.055-2.328,0.004l-2.71-6.541l-0.019,0.008l-0.012-0.025l-6.561,2.721
	c-0.068-0.059-0.145-0.107-0.213-0.172c-0.217-0.193-0.42-0.41-0.627-0.619c-0.205-0.207-0.422-0.404-0.617-0.623
	c-0.057-0.063-0.11-0.143-0.169-0.213l2.714-6.561l-0.021-0.012l0.012-0.021l-6.543-2.709c-0.051-0.779-0.055-1.557,0.004-2.326
	l6.535-2.705l-0.006-0.021l0.02-0.008l-2.715-6.547c0.513-0.592,1.06-1.145,1.646-1.646l6.541,2.705l0.007-0.018l0.02,0.006
	l2.711-6.539c0.781-0.055,1.557-0.055,2.328,0.002l2.707,6.541l0.027,0.012l6.541-2.709c0.283,0.248,0.557,0.516,0.83,0.783
	c0.275,0.279,0.553,0.563,0.809,0.861l-2.706,6.537l0.022,0.008l-0.01,0.025l6.54,2.705C37.237,21.109,37.239,21.887,37.183,22.664z
	 M26.741,19.234l-0.008-0.018l1.584-3.814c-0.289-0.342-0.614-0.66-0.959-0.965l-3.819,1.58l-0.004-0.01l-0.013,0.004l-1.58-3.818
	c-0.451-0.035-0.903-0.035-1.359,0l-1.582,3.816h-0.012l-0.006,0.004l-3.818-1.574c-0.342,0.289-0.658,0.609-0.965,0.953l1.585,3.82
	l-0.013,0.006l0.006,0.014l-3.832,1.59c-0.004,0.049-0.014,0.105-0.017,0.154c-0.008,0.17-0.001,0.344-0.003,0.514
	c0,0.17-0.006,0.344,0.008,0.514c0,0.055,0.004,0.105,0.014,0.16l3.83,1.586v0.02l0.009,0.004l-1.579,3.818
	c0.291,0.342,0.615,0.658,0.962,0.953l3.815-1.582l0.002,0.018l0.015-0.004l1.582,3.816c0.458,0.037,0.911,0.037,1.36,0l1.58-3.816
	l0.013,0.004l0.007-0.016l3.816,1.578c0.344-0.295,0.662-0.615,0.959-0.957l-1.58-3.814l0.011-0.008l-0.004-0.016l3.815-1.58
	c0.016-0.229,0.019-0.465,0.021-0.688c0-0.223-0.003-0.447-0.018-0.666L26.741,19.234z M21.251,24.08
	c-1.422,0-2.576-1.152-2.576-2.578c0-1.422,1.152-2.576,2.576-2.576c1.423,0,2.576,1.152,2.576,2.576S22.673,24.08,21.251,24.08z"/>
</svg>
