<?xml version="1.0" encoding="utf-8"?>
<!-- Generator: Adobe Illustrator 16.0.0, SVG Export Plug-In . SVG Version: 6.00 Build 0)  -->
<!DOCTYPE svg PUBLIC "-//W3C//DTD SVG 1.1//EN" "http://www.w3.org/Graphics/SVG/1.1/DTD/svg11.dtd">
<svg version="1.1" id="Layer_1" xmlns="http://www.w3.org/2000/svg" xmlns:xlink="http://www.w3.org/1999/xlink" x="0px" y="0px"
	 width="42.5px" height="42.75px" viewBox="0 0 42.5 42.75" enable-background="new 0 0 42.5 42.75" xml:space="preserve">
<g id="Layer_1_1_" display="none">
	<title>HTML5 Semantics Logo</title>
	<polygon id="chevron" display="inline" points="21.255,0 0,10.742 0,17.806 21.255,7.064 42.5,17.806 42.5,10.742 	"/>
	<g display="inline">
		<polygon id="chevron_1_" points="21.255,12.33 0,23.072 0,30.137 21.255,19.394 42.5,30.137 42.5,23.072 		"/>
	</g>
	<g display="inline">
		<polygon id="chevron_2_" points="21.255,24.664 0,35.406 0,42.469 21.255,31.729 42.5,42.469 42.5,35.406 		"/>
	</g>
</g>
<g id="Layer_2" display="none">
	<title>HTML5 CSS Styling Logo</title>
	<path display="inline" d="M6.586,0L5.169,7.794H34l-0.898,5.035H4.249l-1.396,7.794h28.833l-1.608,8.891l-11.621,4.233
		l-10.07-4.233l0.689-3.854H1.99L0.306,35.01l16.655,7.014l19.202-7.014l2.546-14.071l0.518-2.824L42.5,0H6.586z"/>
</g>
<g id="Layer_3" display="none">
	<path display="inline" fill="#231F20" d="M30.848,9.624L39.471,1h-9.244l-8.952,8.951L12.308,1H3.064l8.624,8.624H0v31.483h6.146
		h6.662h2.564l5.87-5.871l5.871,5.871h3.406h5.836H42.5V9.624H30.848z M21.259,25.977l-8.571,8.59H6.541V16.165h29.453v18.401
		h-6.146L21.259,25.977z"/>
</g>
<g id="Layer_4" display="none">
	<title>HTML5 Performance and Integration Logo</title>
	<path display="inline" d="M42.211,17.747l-6.214-2.582l2.562-6.188c-0.654-0.914-1.361-1.781-2.14-2.569
		c-0.046-0.05-0.093-0.101-0.142-0.15C36.198,6.177,36.111,6.1,36.023,6.02c-0.76-0.748-1.598-1.426-2.479-2.063l-6.177,2.561
		l-2.575-6.225c-2.236-0.379-4.496-0.388-6.681-0.054c-0.041,0.005-0.075,0.007-0.107,0.01c-0.094,0.016-0.185,0.035-0.271,0.056
		l-2.575,6.21L8.947,3.939C7.092,5.266,5.48,6.861,4.163,8.662C4.151,8.681,4.135,8.699,4.122,8.72
		C4.068,8.793,4.016,8.871,3.964,8.95l2.566,6.206L0.318,17.74c-0.372,2.242-0.384,4.499-0.054,6.688
		c0.004,0.038,0.007,0.079,0.015,0.116c0.011,0.093,0.03,0.181,0.047,0.271l6.204,2.572l-2.566,6.207
		c0.592,0.826,1.227,1.621,1.919,2.35c0.122,0.127,0.238,0.264,0.366,0.391c0.089,0.094,0.19,0.178,0.285,0.266
		c0.746,0.727,1.569,1.387,2.431,2.006l6.19-2.57l2.568,6.215c0.091,0.02,0.188,0.035,0.28,0.059
		c0.021-0.004,0.051,0.002,0.073,0.004c2.194,0.338,4.457,0.328,6.71-0.049l2.573-6.226l6.197,2.573
		c0.08-0.049,0.159-0.104,0.234-0.161c0.023-0.015,0.046-0.034,0.072-0.054c1.783-1.313,3.373-2.92,4.695-4.774l-2.574-6.228
		l6.203-2.574c0.018-0.088,0.037-0.182,0.055-0.278c0.003-0.026,0.003-0.058,0.009-0.086C42.596,22.262,42.586,19.998,42.211,17.747
		z M37.191,22.441l-6.539,2.713l0.01,0.025l-0.021,0.006l2.711,6.549c-0.506,0.588-1.056,1.135-1.646,1.648l-6.538-2.711
		l-0.008,0.021l-0.021-0.012L22.43,37.23c-0.772,0.057-1.543,0.055-2.326,0.002l-2.71-6.549l-0.02,0.008l-0.01-0.024l-6.559,2.724
		c-0.068-0.06-0.145-0.109-0.211-0.174c-0.218-0.191-0.423-0.41-0.629-0.619c-0.205-0.207-0.421-0.406-0.616-0.625
		C9.292,31.91,9.24,31.83,9.181,31.76l2.713-6.57l-0.021-0.012l0.01-0.021l-6.538-2.713c-0.052-0.782-0.057-1.56,0.005-2.331
		l6.53-2.711l-0.006-0.021l0.019-0.007L9.177,10.82c0.515-0.592,1.061-1.144,1.646-1.648l6.539,2.71l0.007-0.019l0.02,0.008
		l2.71-6.551c0.779-0.054,1.554-0.054,2.326,0.003l2.706,6.551l0.027,0.012l6.539-2.714c0.283,0.25,0.556,0.517,0.83,0.785
		c0.273,0.28,0.552,0.563,0.808,0.863l-2.705,6.547l0.022,0.007l-0.01,0.026l6.537,2.71C37.246,20.885,37.248,21.662,37.191,22.441z
		 M26.755,19.007l-0.01-0.019l1.584-3.82c-0.289-0.343-0.614-0.661-0.959-0.966l-3.819,1.583l-0.004-0.009l-0.012,0.002
		l-1.579-3.823c-0.451-0.035-0.902-0.035-1.357,0l-1.582,3.822h-0.012l-0.006,0.004l-3.816-1.577
		c-0.341,0.29-0.658,0.611-0.965,0.954l1.584,3.828l-0.013,0.005l0.004,0.014l-3.83,1.593c-0.005,0.048-0.012,0.104-0.016,0.155
		c-0.008,0.169-0.001,0.343-0.003,0.514c0,0.169-0.006,0.344,0.008,0.515c0,0.053,0.003,0.105,0.012,0.16l3.831,1.59v0.018
		l0.009,0.006l-1.578,3.823c0.291,0.343,0.616,0.659,0.961,0.954L19,26.746l0.003,0.016l0.015-0.005l1.581,3.825
		c0.458,0.036,0.91,0.036,1.359,0l1.579-3.825l0.013,0.005l0.009-0.015l3.813,1.58c0.345-0.296,0.662-0.616,0.959-0.958l-1.58-3.821
		l0.011-0.008l-0.006-0.015l3.814-1.582c0.016-0.229,0.019-0.466,0.021-0.69c0-0.224-0.003-0.447-0.019-0.668L26.755,19.007z
		 M21.266,23.857c-1.422,0-2.576-1.154-2.576-2.581c0-1.424,1.151-2.58,2.576-2.58c1.423,0,2.574,1.154,2.574,2.58
		C23.842,22.701,22.688,23.857,21.266,23.857z"/>
</g>
<g id="Layer_5" display="none">
	<title>HTML5 Multimedia Logo</title>
	<path display="inline" d="M42.482,4.352h-9.373l-6.631,6.614h9.373L42.482,4.352z M21.294,10.969l6.615-6.615h-9.373l-6.632,6.615
		H21.294z M35.867,30.288H6.615V11.037l6.702-6.685h-9.39L0,8.279v28.642h42.5V10.969h-6.633V30.288z"/>
</g>
<g id="Layer_6" display="none">
	<title>HTML5 3D Effects Logo</title>
	<path display="inline" fill="#231F20" d="M23.04,2.044L12.125,5.565l23.652,7.66v15.089L20.014,33.41L6.711,29.111v-14.79
		l12.861,4.158l10.917-3.521L6.8,7.281L0.006,9.492v24.502l20.009,6.477L42.5,33.197V8.324L23.04,2.044z"/>
</g>
<g id="Layer_7" display="none">
	<title>HTML5 Connectivity Logo</title>
	<path display="inline" fill="#231F20" d="M31.714,29.337h5.237V16.761l-5.901-5.9l-3.702,3.703l4.366,4.367V29.337z M36.964,31.962
		h-7.627h-10.64l-4.367-4.366l1.853-1.853l3.606,3.606h7.42l-7.31-7.324l1.865-1.866l7.311,7.312v-7.422l-3.594-3.593l1.838-1.838
		L18.24,5.5H9.286l0,0H0l5.225,5.225v0.014h0.026h10.807l3.827,3.827l-5.597,5.597l-3.828-3.828v-2.971H5.224v5.141l9.063,9.063
		l-3.688,3.688l5.899,5.901h8.954h16.733l0,0L36.964,31.962z"/>
</g>
<g id="Layer_8">
	<title>HTML5 Offline Storage Logo</title>
	<path fill="#115BA8" d="M42.514,14.108h-6.91C32.77,7.197,26.02,2.516,18.517,2.516C8.312,2.516,0,10.938,0,21.311
		c0,10.375,8.312,18.813,18.517,18.813c7.505,0,14.239-4.666,17.087-11.593h6.896V14.108H42.514z M37.02,22.939H18.517
		c-0.881,0-1.604-0.719-1.604-1.628c0-0.895,0.707-1.628,1.604-1.628h18.488v3.256H37.02L37.02,22.939z M18.517,34.548
		c-7.185,0-13.024-5.929-13.024-13.221S11.334,8.106,18.517,8.106c4.453,0,8.544,2.348,10.913,6.016H18.517
		c-3.903,0-7.097,3.229-7.097,7.205c0,3.961,3.18,7.204,7.097,7.204H29.43C27.074,32.199,22.984,34.548,18.517,34.548z"/>
</g>
</svg>
