<?xml version="1.0" encoding="utf-8"?>
<!-- Generator: Adobe Illustrator 16.0.0, SVG Export Plug-In . SVG Version: 6.00 Build 0)  -->
<!DOCTYPE svg PUBLIC "-//W3C//DTD SVG 1.1//EN" "http://www.w3.org/Graphics/SVG/1.1/DTD/svg11.dtd">
<svg version="1.1" id="Layer_1" xmlns="http://www.w3.org/2000/svg" xmlns:xlink="http://www.w3.org/1999/xlink" x="0px" y="0px"
	 width="42.5px" height="42.75px" viewBox="284.75 374.625 42.5 42.75" enable-background="new 284.75 374.625 42.5 42.75"
	 xml:space="preserve">
<title>HTML5 Connectivity Logo</title>
<path fill="#217EE3" d="M316.196,403.508h5.027v-12.071l-5.664-5.665l-3.556,3.555l4.192,4.192V403.508z M321.236,406.029h-7.322
	h-10.215l-4.192-4.192l1.778-1.778l3.462,3.463h7.124l-7.018-7.031l1.791-1.791l7.018,7.017v-7.123l-3.449-3.449l1.765-1.764
	l-8.716-8.755h-8.596l0,0h-8.915l5.015,5.015v0.013h0.026h10.374l3.675,3.674l-5.373,5.373l-3.675-3.674v-2.852h-5.027v4.935
	l8.702,8.703l-3.542,3.541l5.665,5.665h8.596h16.064l0,0L321.236,406.029z"/>
</svg>
